<svg width="418" height="349" viewBox="0 0 418 349" fill="none" xmlns="http://www.w3.org/2000/svg">
<path d="M404.144 347.677H9.49145C8.19584 347.677 7.13159 346.502 7.13159 345.044V3.63367C7.13159 2.18773 8.18427 1 9.49145 1H404.144C405.44 1 406.504 2.17482 406.504 3.63367V345.056C406.492 346.502 405.44 347.677 404.144 347.677Z" fill="white" stroke="#040E2C"/>
<path d="M267.158 116.287H239.657V143.788H267.158V116.287Z" fill="#66C4FF" stroke="#10162F"/>
<path d="M267.158 156.065H239.657V183.566H267.158V156.065Z" fill="#66C4FF" stroke="#10162F"/>
<path d="M267.158 196.159H239.657V223.66H267.158V196.159Z" fill="white" stroke="#040E2C"/>
<path d="M277.243 123.126H388.675" stroke="#10162F"/>
<path d="M277.243 136.498H388.675" stroke="#10162F"/>
<path d="M277.243 167.701H388.675" stroke="#10162F"/>
<path d="M277.243 180.181H388.675" stroke="#10162F"/>
<path d="M277.243 203.358H388.675" stroke="#10162F"/>
<path d="M277.243 217.621H388.675" stroke="#10162F"/>
<path d="M388.675 90.1455H239.802V103.517H388.675V90.1455Z" fill="#FFFAE5" stroke="#0E1631" stroke-miterlimit="10" stroke-linejoin="round"/>
<path d="M265.214 75.1086C278.786 75.1086 289.789 64.1063 289.789 50.5343C289.789 36.9623 278.786 25.96 265.214 25.96C251.642 25.96 240.64 36.9623 240.64 50.5343C240.64 64.1063 251.642 75.1086 265.214 75.1086Z" fill="#FFD300" stroke="#040E2C" stroke-linejoin="round"/>
<path d="M265.214 52.6311C269.894 52.6311 273.688 48.837 273.688 44.1568C273.688 39.4767 269.894 35.6826 265.214 35.6826C260.534 35.6826 256.74 39.4767 256.74 44.1568C256.74 48.837 260.534 52.6311 265.214 52.6311Z" fill="#10162F"/>
<path d="M265.214 75.1093C272.535 75.1093 279.093 71.8874 283.592 66.8066C280.952 59.1903 273.726 53.7188 265.214 53.7188C256.702 53.7188 249.476 59.1903 246.836 66.8066C251.335 71.8969 257.893 75.1093 265.214 75.1093Z" fill="#10162F"/>
<path d="M302.203 44.6807H378.869" stroke="#040E2C"/>
<path d="M302.203 59.8369H378.869" stroke="#040E2C"/>
<path d="M236.236 127.043L247.188 136.823L271.829 113.354" stroke="#10162F"/>
<path d="M236.236 167.325L247.188 177.105L271.829 153.637" stroke="#10162F"/>
<path d="M110.695 41.9707C62.467 41.9707 23.3706 81.0671 23.3706 129.295C23.3706 177.522 62.467 216.619 110.695 216.619C158.922 216.619 198.019 177.522 198.019 129.295C198.019 81.0671 158.922 41.9707 110.695 41.9707ZM110.695 202.69C70.1578 202.69 37.2996 169.832 37.2996 129.295C37.2996 88.7579 70.1578 55.8997 110.695 55.8997C151.232 55.8997 184.09 88.7579 184.09 129.295C184.09 169.832 151.232 202.69 110.695 202.69Z" fill="#FFFAE5" stroke="#10162F"/>
<path d="M184.09 129.291C184.09 170.399 150.291 203.615 108.969 202.662C70.1816 201.769 38.4782 170.257 37.3472 131.482C37.0139 120.243 39.2283 109.552 43.4308 99.933C44.8951 96.5757 43.4189 92.6589 40.145 91.016L40.1092 90.9922C36.5853 89.2302 32.2519 90.7303 30.6685 94.3495C25.7993 105.493 23.1801 117.838 23.4063 130.827C24.204 177.364 61.967 215.425 108.492 216.579C157.732 217.806 198.043 178.257 198.043 129.279C198.043 83.5634 162.911 46.0504 118.171 42.2645C114.147 41.9193 110.719 45.1575 110.719 49.1933V49.229C110.719 52.872 113.54 55.8364 117.159 56.1578C154.66 59.4436 184.09 90.9327 184.09 129.291Z" fill="#66C4FF" stroke="#10162F"/>
<path d="M81.8125 149.162C79.2648 147.864 77.2291 146.007 75.7052 143.602C74.1813 141.197 73.4194 138.376 73.4194 135.138C73.4194 132.292 74.0028 129.828 75.1814 127.745C76.36 125.661 78.0267 124.006 80.1935 122.78C78.6696 121.554 77.491 120.054 76.6576 118.292C75.8242 116.53 75.4076 114.589 75.4076 112.47C75.4076 109.923 76.0386 107.577 77.2886 105.434C78.5386 103.303 80.2887 101.601 82.5506 100.315C84.8126 99.0413 87.3603 98.3984 90.2056 98.3984C93.051 98.3984 95.5986 99.0413 97.8606 100.315C100.123 101.589 101.873 103.291 103.123 105.434C104.373 107.565 105.004 109.911 105.004 112.47C105.004 114.578 104.587 116.518 103.754 118.292C102.92 120.054 101.718 121.554 100.146 122.78C102.301 124.006 103.98 125.661 105.194 127.745C106.397 129.828 107.004 132.292 107.004 135.138C107.004 138.376 106.242 141.197 104.718 143.602C103.194 146.007 101.158 147.864 98.6106 149.162C96.063 150.46 93.2653 151.114 90.2176 151.114C87.1698 151.114 84.3721 150.46 81.8125 149.162ZM95.5868 140.578C97.0154 139.257 97.7178 137.435 97.7178 135.126C97.7178 132.816 97.0035 131.007 95.5868 129.673C94.1582 128.352 92.3724 127.685 90.2176 127.685C88.0627 127.685 86.265 128.352 84.8483 129.673C83.4197 130.995 82.7173 132.816 82.7173 135.126C82.7173 137.435 83.4316 139.245 84.8483 140.578C86.2769 141.9 88.0627 142.566 90.2176 142.566C92.3724 142.566 94.1582 141.9 95.5868 140.578ZM94.6939 117.351C95.8249 116.149 96.3844 114.566 96.3844 112.601C96.3844 110.685 95.8249 109.137 94.6939 107.958C93.5629 106.78 92.0628 106.196 90.2056 106.196C88.3365 106.196 86.8484 106.78 85.7174 107.958C84.5864 109.137 84.0269 110.685 84.0269 112.601C84.0269 114.566 84.5864 116.149 85.7174 117.351C86.8484 118.554 88.3365 119.161 90.2056 119.161C92.0747 119.161 93.5748 118.554 94.6939 117.351Z" fill="#10162F"/>
<path d="M115.897 144.15C112.611 139.507 110.968 133.042 110.968 124.756C110.968 116.458 112.611 109.994 115.897 105.363C119.183 100.72 123.873 98.4102 129.957 98.4102C136.04 98.4102 140.731 100.732 144.017 105.363C147.303 110.006 148.946 116.47 148.946 124.756C148.946 133.054 147.303 139.519 144.017 144.15C140.731 148.793 136.04 151.102 129.957 151.102C123.873 151.114 119.183 148.793 115.897 144.15ZM139.826 124.756C139.826 112.875 136.54 106.946 129.957 106.946C123.385 106.946 120.088 112.887 120.088 124.756C120.088 136.638 123.373 142.566 129.957 142.566C136.54 142.566 139.826 136.626 139.826 124.756Z" fill="#10162F"/>
<path d="M77.1216 164.282H144.267" stroke="#10162F"/>
<path d="M77.1218 173.724H144.267" stroke="#10162F"/>
<path d="M413.598 305.708H118.018C116.194 305.708 114.707 304.221 114.707 302.396V191.505C114.707 189.681 116.194 188.193 118.018 188.193H413.598C415.423 188.193 416.91 189.681 416.91 191.505V302.396C416.91 304.233 415.423 305.708 413.598 305.708Z" fill="white" stroke="#10162F"/>
<path d="M287.523 250.271H217.199C213.875 250.271 211.188 247.584 211.188 244.259V242.397C211.188 239.073 213.875 236.386 217.199 236.386H287.523C290.847 236.386 293.534 239.073 293.534 242.397V244.259C293.534 247.571 290.847 250.271 287.523 250.271Z" fill="#FFD300" stroke="#10162F" stroke-linejoin="round"/>
<path d="M368.419 274.338H277.875C274.55 274.338 271.863 271.651 271.863 268.327V266.464C271.863 263.14 274.55 260.453 277.875 260.453H368.419C371.744 260.453 374.431 263.14 374.431 266.464V268.327C374.431 271.638 371.744 274.338 368.419 274.338Z" fill="#FFD300" stroke="#10162F" stroke-linejoin="round"/>
<path d="M260.866 274.338H217.187C213.862 274.338 211.175 271.651 211.175 268.327V266.464C211.175 263.14 213.862 260.453 217.187 260.453H260.866C264.19 260.453 266.877 263.14 266.877 266.464V268.327C266.877 271.638 264.19 274.338 260.866 274.338Z" fill="#FFD300" stroke="#10162F" stroke-linejoin="round"/>
<path d="M337.251 250.271H305.719C302.395 250.271 299.708 247.584 299.708 244.259V242.397C299.708 239.073 302.395 236.386 305.719 236.386H337.251C340.575 236.386 343.262 239.073 343.262 242.397V244.259C343.262 247.571 340.575 250.271 337.251 250.271Z" fill="#FFD300" stroke="#10162F" stroke-linejoin="round"/>
<path d="M386.016 250.271H354.485C351.16 250.271 348.473 247.584 348.473 244.259V242.397C348.473 239.073 351.16 236.386 354.485 236.386H386.016C389.34 236.386 392.027 239.073 392.027 242.397V244.259C392.027 247.571 389.34 250.271 386.016 250.271Z" fill="#FFD300" stroke="#10162F" stroke-linejoin="round"/>
<path d="M416.91 210.738H114.707V191.467C114.707 189.642 116.194 188.155 118.018 188.155H413.598C415.423 188.155 416.91 189.642 416.91 191.467V210.738Z" fill="#FFD300" stroke="#10162F"/>
<path d="M165.996 286.499C182.196 286.499 195.328 273.367 195.328 257.168C195.328 240.968 182.196 227.836 165.996 227.836C149.797 227.836 136.665 240.968 136.665 257.168C136.665 273.367 149.797 286.499 165.996 286.499Z" fill="#FFFAE5" stroke="#10162F" stroke-linecap="round" stroke-linejoin="round"/>
<path d="M161.447 273.587L149 261.14L154.836 255.303L161.447 261.914L179.706 243.668L185.542 249.492L161.447 273.587Z" fill="#FFD300" stroke="#10162F" stroke-linejoin="round"/>
<path d="M151.185 254.794H58.0986C56.5728 254.794 55.3411 253.562 55.3411 252.036V225.444C55.3411 223.918 56.5728 222.687 58.0986 222.687H151.185C152.711 222.687 153.942 223.918 153.942 225.444V252.036C153.942 253.562 152.711 254.794 151.185 254.794Z" fill="#10162F" stroke="#10162F" stroke-miterlimit="10"/>
<path d="M153.528 252.46H60.4421C58.9163 252.46 57.6846 251.228 57.6846 249.702V223.11C57.6846 221.584 58.9163 220.353 60.4421 220.353H153.528C155.054 220.353 156.286 221.584 156.286 223.11V249.702C156.286 251.219 155.045 252.46 153.528 252.46Z" fill="#FFD300" stroke="#10162F" stroke-miterlimit="10"/>
<path d="M73.3347 241.928C72.4488 241.928 71.629 241.724 70.8754 241.317C70.1321 240.899 69.5312 240.278 69.073 239.453C68.6249 238.628 68.4009 237.63 68.4009 236.459C68.4009 235.288 68.6351 234.295 69.1035 233.481C69.572 232.656 70.1932 232.035 70.9671 231.617C71.741 231.2 72.5812 230.991 73.4875 230.991C74.6382 230.991 75.5954 231.302 76.3592 231.923C77.1229 232.534 77.6474 233.348 77.9325 234.367L76.1148 234.84C75.5649 233.496 74.6891 232.824 73.4875 232.824C72.5812 232.824 71.8429 233.135 71.2726 233.756C70.7023 234.367 70.4172 235.268 70.4172 236.459C70.4172 237.681 70.6972 238.593 71.2573 239.194C71.8174 239.794 72.5455 240.095 73.4416 240.095C74.1647 240.095 74.7247 239.896 75.1219 239.499C75.5292 239.092 75.7685 238.613 75.8398 238.063H73.8541V236.414H77.7645V241.806H76.0995L75.9315 240.66C75.6973 241.027 75.3612 241.332 74.9233 241.577C74.4956 241.811 73.9661 241.928 73.3347 241.928ZM86.7391 238.567H81.4234C81.5049 239.138 81.7035 239.57 82.0192 239.866C82.345 240.161 82.7574 240.309 83.2564 240.309C83.6841 240.309 84.0405 240.212 84.3257 240.018C84.621 239.825 84.8858 239.525 85.12 239.117L86.6475 239.682C86.3318 240.405 85.8888 240.96 85.3186 241.347C84.7585 241.734 84.0355 241.928 83.1495 241.928C82.3145 241.928 81.6169 241.734 81.0568 241.347C80.5069 240.95 80.0996 240.451 79.8348 239.85C79.5802 239.239 79.453 238.608 79.453 237.956C79.453 237.305 79.5802 236.678 79.8348 236.078C80.0996 235.467 80.5069 234.968 81.0568 234.581C81.6169 234.183 82.3145 233.985 83.1495 233.985C83.954 233.985 84.6261 234.178 85.1658 234.565C85.7055 234.942 86.1027 235.421 86.3573 236.001C86.6118 236.582 86.7391 237.177 86.7391 237.788V238.567ZM84.7992 237.07C84.7076 236.643 84.5243 236.291 84.2493 236.016C83.9845 235.741 83.6179 235.604 83.1495 235.604C82.7422 235.604 82.3908 235.731 82.0955 235.986C81.8002 236.23 81.5915 236.592 81.4693 237.07H84.7992ZM91.5286 241.928C90.6426 241.928 89.9501 241.689 89.4512 241.21C88.9522 240.731 88.7027 240.024 88.7027 239.087V235.726H87.5112V234.107H88.7027V232.182L90.5968 230.991V234.107H92.6284V235.726H90.5968V239.056C90.5968 239.514 90.6782 239.84 90.8412 240.034C91.0143 240.217 91.2689 240.309 91.6049 240.309C91.8595 240.309 92.1039 240.248 92.3381 240.125L92.7811 241.653C92.384 241.836 91.9664 241.928 91.5286 241.928ZM99.7796 234.107V235.36C100.055 234.922 100.391 234.586 100.788 234.351C101.185 234.107 101.607 233.985 102.056 233.985C102.341 233.985 102.651 234.036 102.987 234.138L102.636 235.894C102.402 235.752 102.137 235.68 101.842 235.68C101.241 235.68 100.747 235.955 100.36 236.505C99.973 237.045 99.7796 237.9 99.7796 239.071V241.806H97.8855V234.107H99.7796ZM110.755 238.567H105.44C105.521 239.138 105.72 239.57 106.036 239.866C106.361 240.161 106.774 240.309 107.273 240.309C107.7 240.309 108.057 240.212 108.342 240.018C108.637 239.825 108.902 239.525 109.136 239.117L110.664 239.682C110.348 240.405 109.905 240.96 109.335 241.347C108.775 241.734 108.052 241.928 107.166 241.928C106.331 241.928 105.633 241.734 105.073 241.347C104.523 240.95 104.116 240.451 103.851 239.85C103.597 239.239 103.469 238.608 103.469 237.956C103.469 237.305 103.597 236.678 103.851 236.078C104.116 235.467 104.523 234.968 105.073 234.581C105.633 234.183 106.331 233.985 107.166 233.985C107.97 233.985 108.642 234.178 109.182 234.565C109.722 234.942 110.119 235.421 110.374 236.001C110.628 236.582 110.755 237.177 110.755 237.788V238.567ZM108.816 237.07C108.724 236.643 108.541 236.291 108.266 236.016C108.001 235.741 107.634 235.604 107.166 235.604C106.759 235.604 106.407 235.731 106.112 235.986C105.817 236.23 105.608 236.592 105.486 237.07H108.816ZM114.353 234.107V234.443V234.901C114.476 234.677 114.705 234.469 115.041 234.275C115.387 234.082 115.779 233.985 116.217 233.985C117.347 233.985 118.213 234.346 118.814 235.069C119.425 235.782 119.73 236.745 119.73 237.956C119.73 239.168 119.425 240.136 118.814 240.859C118.213 241.571 117.347 241.928 116.217 241.928C115.84 241.928 115.479 241.846 115.132 241.683C114.786 241.521 114.527 241.327 114.353 241.103V241.561V244.922H112.459V234.107H114.353ZM115.957 240.309C116.477 240.309 116.904 240.1 117.24 239.682C117.576 239.265 117.745 238.69 117.745 237.956C117.745 237.213 117.576 236.638 117.24 236.23C116.904 235.813 116.477 235.604 115.957 235.604C115.438 235.604 115.01 235.813 114.674 236.23C114.348 236.638 114.185 237.213 114.185 237.956C114.185 238.7 114.348 239.28 114.674 239.698C115.01 240.105 115.438 240.309 115.957 240.309ZM124.922 241.928C124.118 241.928 123.42 241.755 122.829 241.409C122.239 241.062 121.786 240.589 121.47 239.988C121.164 239.387 121.012 238.71 121.012 237.956C121.012 237.203 121.164 236.526 121.47 235.925C121.786 235.324 122.239 234.85 122.829 234.504C123.42 234.158 124.118 233.985 124.922 233.985C125.727 233.985 126.424 234.158 127.015 234.504C127.605 234.85 128.053 235.324 128.359 235.925C128.675 236.526 128.832 237.203 128.832 237.956C128.832 238.71 128.675 239.387 128.359 239.988C128.053 240.589 127.605 241.062 127.015 241.409C126.424 241.755 125.727 241.928 124.922 241.928ZM124.922 240.309C125.513 240.309 125.981 240.085 126.327 239.637C126.674 239.178 126.847 238.618 126.847 237.956C126.847 237.294 126.674 236.739 126.327 236.291C125.981 235.833 125.513 235.604 124.922 235.604C124.331 235.604 123.863 235.833 123.517 236.291C123.171 236.739 122.997 237.294 122.997 237.956C122.997 238.618 123.171 239.178 123.517 239.637C123.863 240.085 124.331 240.309 124.922 240.309ZM132.433 234.107V235.36C132.708 234.922 133.044 234.586 133.441 234.351C133.838 234.107 134.261 233.985 134.709 233.985C134.994 233.985 135.305 234.036 135.641 234.138L135.289 235.894C135.055 235.752 134.79 235.68 134.495 235.68C133.894 235.68 133.4 235.955 133.013 236.505C132.626 237.045 132.433 237.9 132.433 239.071V241.806H130.539V234.107H132.433ZM140.456 241.928C139.57 241.928 138.878 241.689 138.379 241.21C137.88 240.731 137.63 240.024 137.63 239.087V235.726H136.439V234.107H137.63V232.182L139.525 230.991V234.107H141.556V235.726H139.525V239.056C139.525 239.514 139.606 239.84 139.769 240.034C139.942 240.217 140.197 240.309 140.533 240.309C140.787 240.309 141.032 240.248 141.266 240.125L141.709 241.653C141.312 241.836 140.894 241.928 140.456 241.928Z" fill="black"/>
</svg>
